<svg width="14" height="14" viewBox="0 0 14 14" fill="none" xmlns="http://www.w3.org/2000/svg">
<path d="M7.074 0.256C8.298 0.256 9.384 0.532 10.332 1.084C11.292 1.624 12.036 2.386 12.564 3.37C13.104 4.342 13.374 5.452 13.374 6.7C13.374 7.948 13.104 9.064 12.564 10.048C12.036 11.02 11.292 11.782 10.332 12.334C9.384 12.874 8.298 13.144 7.074 13.144C5.838 13.144 4.74 12.874 3.78 12.334C2.832 11.782 2.088 11.02 1.548 10.048C1.02 9.064 0.756 7.948 0.756 6.7C0.756 5.452 1.02 4.342 1.548 3.37C2.088 2.386 2.832 1.624 3.78 1.084C4.74 0.532 5.838 0.256 7.074 0.256ZM7.074 1.174C5.994 1.174 5.052 1.402 4.248 1.858C3.444 2.302 2.826 2.944 2.394 3.784C1.962 4.612 1.746 5.584 1.746 6.7C1.746 7.804 1.962 8.776 2.394 9.616C2.826 10.444 3.444 11.092 4.248 11.56C5.052 12.016 5.994 12.244 7.074 12.244C8.142 12.244 9.078 12.016 9.882 11.56C10.686 11.092 11.304 10.444 11.736 9.616C12.168 8.776 12.384 7.804 12.384 6.7C12.384 5.584 12.168 4.612 11.736 3.784C11.304 2.944 10.686 2.302 9.882 1.858C9.09 1.402 8.154 1.174 7.074 1.174ZM7.056 2.596C6.3 2.596 5.622 2.764 5.022 3.1C4.422 3.436 3.948 3.916 3.6 4.54C3.264 5.152 3.096 5.866 3.096 6.682C3.096 7.498 3.264 8.218 3.6 8.842C3.948 9.466 4.422 9.946 5.022 10.282C5.622 10.618 6.3 10.786 7.056 10.786C7.98 10.786 8.778 10.534 9.45 10.03C10.122 9.514 10.56 8.836 10.764 7.996H8.55C8.418 8.332 8.226 8.59 7.974 8.77C7.734 8.95 7.41 9.04 7.002 9.04C6.45 9.04 6.012 8.842 5.688 8.446C5.376 8.038 5.22 7.45 5.22 6.682C5.22 5.914 5.376 5.332 5.688 4.936C6.012 4.54 6.45 4.342 7.002 4.342C7.386 4.342 7.71 4.432 7.974 4.612C8.25 4.792 8.442 5.05 8.55 5.386H10.764C10.56 4.522 10.122 3.844 9.45 3.352C8.79 2.848 7.992 2.596 7.056 2.596Z" fill="#2D2D2D"/>
</svg>
