<svg width="55" height="15" viewBox="0 0 55 15" fill="none" xmlns="http://www.w3.org/2000/svg">
<path d="M3.66 11.86H8.14V14.5H0.24V0.46H3.66V11.86ZM16.4113 14.64C15.0913 14.64 13.8779 14.3333 12.7713 13.72C11.6779 13.1067 10.8046 12.2533 10.1513 11.16C9.51125 10.0533 9.19125 8.81333 9.19125 7.44C9.19125 6.06667 9.51125 4.83333 10.1513 3.74C10.8046 2.64667 11.6779 1.79333 12.7713 1.18C13.8779 0.566666 15.0913 0.26 16.4113 0.26C17.7313 0.26 18.9379 0.566666 20.0313 1.18C21.1379 1.79333 22.0046 2.64667 22.6313 3.74C23.2713 4.83333 23.5913 6.06667 23.5913 7.44C23.5913 8.81333 23.2713 10.0533 22.6313 11.16C21.9913 12.2533 21.1246 13.1067 20.0313 13.72C18.9379 14.3333 17.7313 14.64 16.4113 14.64ZM16.4113 11.52C17.5313 11.52 18.4246 11.1467 19.0912 10.4C19.7713 9.65333 20.1113 8.66667 20.1113 7.44C20.1113 6.2 19.7713 5.21333 19.0912 4.48C18.4246 3.73333 17.5313 3.36 16.4113 3.36C15.2779 3.36 14.3713 3.72667 13.6913 4.46C13.0246 5.19333 12.6913 6.18667 12.6913 7.44C12.6913 8.68 13.0246 9.67333 13.6913 10.42C14.3713 11.1533 15.2779 11.52 16.4113 11.52ZM34.8139 4.9C34.5606 4.43333 34.1939 4.08 33.7139 3.84C33.2472 3.58667 32.6939 3.46 32.0539 3.46C30.9472 3.46 30.0606 3.82667 29.3939 4.56C28.7272 5.28 28.3939 6.24667 28.3939 7.46C28.3939 8.75333 28.7406 9.76667 29.4339 10.5C30.1406 11.22 31.1072 11.58 32.3339 11.58C33.1739 11.58 33.8806 11.3667 34.4539 10.94C35.0406 10.5133 35.4672 9.9 35.7339 9.1H31.3939V6.58H38.8339V9.76C38.5806 10.6133 38.1472 11.4067 37.5339 12.14C36.9339 12.8733 36.1672 13.4667 35.2339 13.92C34.3006 14.3733 33.2472 14.6 32.0739 14.6C30.6872 14.6 29.4472 14.3 28.3539 13.7C27.2739 13.0867 26.4272 12.24 25.8139 11.16C25.2139 10.08 24.9139 8.84667 24.9139 7.46C24.9139 6.07333 25.2139 4.84 25.8139 3.76C26.4272 2.66667 27.2739 1.82 28.3539 1.22C29.4339 0.606666 30.6672 0.299999 32.0539 0.299999C33.7339 0.299999 35.1472 0.706666 36.2939 1.52C37.4539 2.33333 38.2206 3.46 38.5939 4.9H34.8139ZM47.3683 14.64C46.0483 14.64 44.8349 14.3333 43.7283 13.72C42.6349 13.1067 41.7616 12.2533 41.1083 11.16C40.4683 10.0533 40.1483 8.81333 40.1483 7.44C40.1483 6.06667 40.4683 4.83333 41.1083 3.74C41.7616 2.64667 42.6349 1.79333 43.7283 1.18C44.8349 0.566666 46.0483 0.26 47.3683 0.26C48.6883 0.26 49.8949 0.566666 50.9883 1.18C52.0949 1.79333 52.9616 2.64667 53.5883 3.74C54.2283 4.83333 54.5483 6.06667 54.5483 7.44C54.5483 8.81333 54.2283 10.0533 53.5883 11.16C52.9483 12.2533 52.0816 13.1067 50.9883 13.72C49.8949 14.3333 48.6883 14.64 47.3683 14.64ZM47.3683 11.52C48.4883 11.52 49.3816 11.1467 50.0483 10.4C50.7283 9.65333 51.0683 8.66667 51.0683 7.44C51.0683 6.2 50.7283 5.21333 50.0483 4.48C49.3816 3.73333 48.4883 3.36 47.3683 3.36C46.2349 3.36 45.3283 3.72667 44.6483 4.46C43.9816 5.19333 43.6483 6.18667 43.6483 7.44C43.6483 8.68 43.9816 9.67333 44.6483 10.42C45.3283 11.1533 46.2349 11.52 47.3683 11.52Z" fill="#2D2D2D"/>
</svg>
